<svg width="24" height="24" viewBox="0 0 24 24" fill="none" xmlns="http://www.w3.org/2000/svg">
<g clip-path="url(#clip0_179611_2453)">
<path fill-rule="evenodd" clip-rule="evenodd" d="M3.01562 7.48828V5.24219C3.01562 4.01445 4.01447 3.01562 5.24219 3.01562H7.48828C7.76873 3.01562 7.99609 2.78826 7.99609 2.50781C7.99609 2.22736 7.76873 2 7.48828 2H5.24219C3.45445 2 2 3.45443 2 5.24219V7.48828C2 7.76873 2.22736 7.99609 2.50781 7.99609C2.78826 7.99609 3.01562 7.76873 3.01562 7.48828ZM7.48828 20.9843C7.76873 20.9843 7.99609 21.2117 7.99609 21.4921C7.99609 21.7726 7.76873 21.9999 7.48828 21.9999H5.24219C3.45445 21.9999 2 20.5455 2 18.7578V16.5117C2 16.2312 2.22736 16.0039 2.50781 16.0039C2.78826 16.0039 3.01562 16.2312 3.01562 16.5117V18.7578C3.01562 19.9855 4.01447 20.9843 5.24219 20.9843H7.48828ZM22 16.5117V18.7578C22 20.5455 20.5455 21.9999 18.7578 21.9999H16.5117C16.2313 21.9999 16.0039 21.7726 16.0039 21.4921C16.0039 21.2117 16.2313 20.9843 16.5117 20.9843H18.7578C19.9855 20.9843 20.9844 19.9855 20.9844 18.7578V16.5117C20.9844 16.2312 21.2117 16.0039 21.4922 16.0039C21.7726 16.0039 22 16.2312 22 16.5117ZM22 5.24219V7.48828C22 7.76873 21.7726 7.99609 21.4922 7.99609C21.2117 7.99609 20.9844 7.76873 20.9844 7.48828V5.24219C20.9844 4.01445 19.9855 3.01562 18.7578 3.01562H16.5117C16.2313 3.01562 16.0039 2.78826 16.0039 2.50781C16.0039 2.22736 16.2313 2 16.5117 2H18.7578C20.5455 2 22 3.45443 22 5.24219Z" fill="white"/>
<path d="M2.76562 5.24219V7.48828H3.26562V5.24219H2.76562ZM5.24219 2.76562C3.8764 2.76562 2.76562 3.87638 2.76562 5.24219H3.26562C3.26562 4.15253 4.15254 3.26562 5.24219 3.26562V2.76562ZM7.48828 2.76562H5.24219V3.26562H7.48828V2.76562ZM7.74609 2.50781C7.74609 2.65019 7.63066 2.76562 7.48828 2.76562V3.26562C7.9068 3.26562 8.24609 2.92633 8.24609 2.50781H7.74609ZM7.48828 2.25C7.63066 2.25 7.74609 2.36543 7.74609 2.50781H8.24609C8.24609 2.08929 7.9068 1.75 7.48828 1.75V2.25ZM5.24219 2.25H7.48828V1.75H5.24219V2.25ZM2.25 5.24219C2.25 3.59251 3.59252 2.25 5.24219 2.25V1.75C3.31638 1.75 1.75 3.31636 1.75 5.24219H2.25ZM2.25 7.48828V5.24219H1.75V7.48828H2.25ZM2.50781 7.74609C2.36543 7.74609 2.25 7.63066 2.25 7.48828H1.75C1.75 7.9068 2.08929 8.24609 2.50781 8.24609V7.74609ZM2.76562 7.48828C2.76562 7.63066 2.65019 7.74609 2.50781 7.74609V8.24609C2.92633 8.24609 3.26562 7.9068 3.26562 7.48828H2.76562ZM8.24609 21.4921C8.24609 21.0736 7.9068 20.7343 7.48828 20.7343V21.2343C7.63066 21.2343 7.74609 21.3498 7.74609 21.4921H8.24609ZM7.48828 22.2499C7.9068 22.2499 8.24609 21.9107 8.24609 21.4921H7.74609C7.74609 21.6345 7.63066 21.7499 7.48828 21.7499V22.2499ZM5.24219 22.2499H7.48828V21.7499H5.24219V22.2499ZM1.75 18.7578C1.75 20.6836 3.31638 22.2499 5.24219 22.2499V21.7499C3.59252 21.7499 2.25 20.4074 2.25 18.7578H1.75ZM1.75 16.5117V18.7578H2.25V16.5117H1.75ZM2.50781 15.7539C2.08929 15.7539 1.75 16.0931 1.75 16.5117H2.25C2.25 16.3693 2.36543 16.2539 2.50781 16.2539V15.7539ZM3.26562 16.5117C3.26562 16.0931 2.92633 15.7539 2.50781 15.7539V16.2539C2.65019 16.2539 2.76562 16.3693 2.76562 16.5117H3.26562ZM3.26562 18.7578V16.5117H2.76562V18.7578H3.26562ZM5.24219 20.7343C4.15254 20.7343 3.26562 19.8474 3.26562 18.7578H2.76562C2.76562 20.1235 3.8764 21.2343 5.24219 21.2343V20.7343ZM7.48828 20.7343H5.24219V21.2343H7.48828V20.7343ZM22.25 18.7578V16.5117H21.75V18.7578H22.25ZM18.7578 22.2499C20.6836 22.2499 22.25 20.6836 22.25 18.7578H21.75C21.75 20.4074 20.4075 21.7499 18.7578 21.7499V22.2499ZM16.5117 22.2499H18.7578V21.7499H16.5117V22.2499ZM15.7539 21.4921C15.7539 21.9107 16.0932 22.2499 16.5117 22.2499V21.7499C16.3693 21.7499 16.2539 21.6345 16.2539 21.4921H15.7539ZM16.5117 20.7343C16.0932 20.7343 15.7539 21.0736 15.7539 21.4921H16.2539C16.2539 21.3498 16.3693 21.2343 16.5117 21.2343V20.7343ZM18.7578 20.7343H16.5117V21.2343H18.7578V20.7343ZM20.7344 18.7578C20.7344 19.8474 19.8475 20.7343 18.7578 20.7343V21.2343C20.1236 21.2343 21.2344 20.1235 21.2344 18.7578H20.7344ZM20.7344 16.5117V18.7578H21.2344V16.5117H20.7344ZM21.4922 15.7539C21.0737 15.7539 20.7344 16.0931 20.7344 16.5117H21.2344C21.2344 16.3693 21.3498 16.2539 21.4922 16.2539V15.7539ZM22.25 16.5117C22.25 16.0931 21.9107 15.7539 21.4922 15.7539V16.2539C21.6346 16.2539 21.75 16.3693 21.75 16.5117H22.25ZM22.25 7.48828V5.24219H21.75V7.48828H22.25ZM21.4922 8.24609C21.9107 8.24609 22.25 7.9068 22.25 7.48828H21.75C21.75 7.63066 21.6346 7.74609 21.4922 7.74609V8.24609ZM20.7344 7.48828C20.7344 7.9068 21.0737 8.24609 21.4922 8.24609V7.74609C21.3498 7.74609 21.2344 7.63066 21.2344 7.48828H20.7344ZM20.7344 5.24219V7.48828H21.2344V5.24219H20.7344ZM18.7578 3.26562C19.8475 3.26562 20.7344 4.15253 20.7344 5.24219H21.2344C21.2344 3.87638 20.1236 2.76562 18.7578 2.76562V3.26562ZM16.5117 3.26562H18.7578V2.76562H16.5117V3.26562ZM15.7539 2.50781C15.7539 2.92633 16.0932 3.26562 16.5117 3.26562V2.76562C16.3693 2.76562 16.2539 2.65019 16.2539 2.50781H15.7539ZM16.5117 1.75C16.0932 1.75 15.7539 2.08929 15.7539 2.50781H16.2539C16.2539 2.36543 16.3693 2.25 16.5117 2.25V1.75ZM18.7578 1.75H16.5117V2.25H18.7578V1.75ZM22.25 5.24219C22.25 3.31636 20.6836 1.75 18.7578 1.75V2.25C20.4075 2.25 21.75 3.59251 21.75 5.24219H22.25Z" fill="white"/>
<path fill-rule="evenodd" clip-rule="evenodd" d="M15.5046 16.7819C15.7186 16.5843 15.7318 16.2507 15.5342 16.0367C15.3366 15.8228 15.0029 15.8096 14.789 16.0071C14.0277 16.7104 13.0373 17.0976 12.0002 17.0976C10.963 17.0976 9.97261 16.7104 9.21134 16.0071C8.99736 15.8096 8.66379 15.8228 8.46615 16.0367C8.26853 16.2507 8.28175 16.5843 8.4957 16.7819C9.45244 17.6656 10.697 18.1523 12.0002 18.1523C13.3034 18.1523 14.5479 17.6656 15.5046 16.7819Z" fill="#5BB9EE"/>
<path d="M15.5046 16.7819C15.7186 16.5843 15.7318 16.2507 15.5342 16.0367C15.3366 15.8228 15.0029 15.8096 14.789 16.0071C14.0277 16.7104 13.0373 17.0976 12.0002 17.0976C10.963 17.0976 9.97261 16.7104 9.21134 16.0071C8.99736 15.8096 8.66379 15.8228 8.46615 16.0367C8.26853 16.2507 8.28175 16.5843 8.4957 16.7819C9.45244 17.6656 10.697 18.1523 12.0002 18.1523C13.3034 18.1523 14.5479 17.6656 15.5046 16.7819" stroke="#5BB9EE" stroke-width="0.2"/>
<path fill-rule="evenodd" clip-rule="evenodd" d="M13.0547 13.2891V9.53906C13.0547 9.24781 12.8186 9.01172 12.5273 9.01172C12.2361 9.01172 12 9.24781 12 9.53906V13.2891C12 13.4506 11.8686 13.582 11.707 13.582H11.2773C10.9861 13.582 10.75 13.8181 10.75 14.1094C10.75 14.4006 10.9861 14.6367 11.2773 14.6367H11.707C12.4501 14.6367 13.0547 14.0322 13.0547 13.2891Z" fill="#5BB9EE"/>
<path d="M13.0547 13.2891V9.53906C13.0547 9.24781 12.8186 9.01172 12.5273 9.01172C12.2361 9.01172 12 9.24781 12 9.53906V13.2891C12 13.4506 11.8686 13.582 11.707 13.582H11.2773C10.9861 13.582 10.75 13.8181 10.75 14.1094C10.75 14.4006 10.9861 14.6367 11.2773 14.6367H11.707C12.4501 14.6367 13.0547 14.0322 13.0547 13.2891" stroke="#5BB9EE" stroke-width="0.2"/>
<path fill-rule="evenodd" clip-rule="evenodd" d="M16.6875 11.0137V9.50977C16.6875 9.23471 16.4645 9.01172 16.1895 9.01172C15.9144 9.01172 15.6914 9.23471 15.6914 9.50977V11.0137C15.6914 11.2887 15.9144 11.5117 16.1895 11.5117C16.4645 11.5117 16.6875 11.2887 16.6875 11.0137Z" fill="#5BB9EE"/>
<path d="M16.6875 11.0137V9.50977C16.6875 9.23471 16.4645 9.01172 16.1895 9.01172C15.9144 9.01172 15.6914 9.23471 15.6914 9.50977V11.0137C15.6914 11.2887 15.9144 11.5117 16.1895 11.5117C16.4645 11.5117 16.6875 11.2887 16.6875 11.0137" stroke="#5BB9EE" stroke-width="0.2"/>
<path fill-rule="evenodd" clip-rule="evenodd" d="M7.92773 11.5117C7.65268 11.5117 7.42969 11.2887 7.42969 11.0137V9.50977C7.42969 9.23471 7.65268 9.01172 7.92773 9.01172C8.20279 9.01172 8.42578 9.23471 8.42578 9.50977V11.0137C8.42578 11.2887 8.20279 11.5117 7.92773 11.5117Z" fill="#5BB9EE"/>
<path d="M7.92773 11.5117V11.5117C7.65268 11.5117 7.42969 11.2887 7.42969 11.0137V9.50977C7.42969 9.23471 7.65268 9.01172 7.92773 9.01172C8.20279 9.01172 8.42578 9.23471 8.42578 9.50977V11.0137C8.42578 11.2887 8.20279 11.5117 7.92773 11.5117" stroke="#5BB9EE" stroke-width="0.2"/>
</g>
<defs>
<clipPath id="clip0_179611_2453">
<rect width="24" height="24" fill="white"/>
</clipPath>
</defs>
</svg>
