<svg width="46" height="52" viewBox="0 0 46 52" fill="none" xmlns="http://www.w3.org/2000/svg">
<path d="M10.8863 23.7717C11.5947 22.959 12.9172 23.218 13.2668 24.2378L16.8266 34.6219C17.1762 35.6418 16.2907 36.6576 15.2327 36.4505L4.45989 34.3413C3.40188 34.1341 2.96487 32.8594 3.67327 32.0467L10.8863 23.7717Z" fill="#E6F7FF"/>
<path d="M18.9882 25.4372C18.0546 25.9762 16.8875 25.3024 16.8875 24.2243L16.8875 8.39566C16.8875 7.31756 18.0546 6.64376 18.9882 7.1828L32.6963 15.0971C33.6299 15.6362 33.6299 16.9838 32.6963 17.5229L18.9882 25.4372Z" fill="#F47623"/>
<path d="M20.6297 31.7804C20.0399 30.8779 20.6483 29.6754 21.7247 29.6158L37.5292 28.7416C38.6057 28.6821 39.3429 29.8101 38.8563 30.7721L31.7111 44.8964C31.2245 45.8584 29.8789 45.9328 29.2891 45.0303L20.6297 31.7804Z" fill="#88C65D"/>
</svg>
